<svg preserveAspectRatio="none" overflow="visible" style="display: block;" width="12" height="15" viewBox="0 0 12 15" fill="none" xmlns="http://www.w3.org/2000/svg">
<path id="Shape" d="M12 12C12 13.6569 10.6569 15 9 15H3C1.34315 15 0 13.6569 0 12V10H12V12ZM10.5 0C10.7761 0 11 0.223858 11 0.5C11 0.776142 10.7761 1 10.5 1H10V4.1709C11.1652 4.58275 12 5.6938 12 7V9H0V7C0 5.69415 0.835321 4.58594 2 4.17383V1H1.5C1.22386 1 1 0.776142 1 0.5C1 0.223858 1.22386 0 1.5 0H10.5ZM3 4H5.5V3H5C4.72386 3 4.5 2.77614 4.5 2.5C4.5 2.22386 4.72386 2 5 2H7C7.27614 2 7.5 2.22386 7.5 2.5C7.5 2.77614 7.27614 3 7 3H6.5V4H9V1H3V4Z" fill="#168E3F"/>
</svg>
