<svg preserveAspectRatio="none" overflow="visible" style="display: block;" width="14" height="14" viewBox="0 0 14 14" fill="none" xmlns="http://www.w3.org/2000/svg">
<path id="Shape" d="M4 1.5C4 1.85555 3.92578 2.19377 3.79198 2.5H7C7.27614 2.5 7.5 2.72386 7.5 3V5H7C5.89543 5 5 5.89543 5 7V7.5H3C2.72386 7.5 2.5 7.27614 2.5 7V3.79198C2.19377 3.92578 1.85555 4 1.5 4C1.32877 4 1.16155 3.98278 1 3.94999V7C1 8.10457 1.89543 9 3 9H5V11C5 12.1046 5.89543 13 7 13H10.05C10.0172 12.8384 10 12.6712 10 12.5C10 12.1444 10.0742 11.8062 10.208 11.5H7C6.72386 11.5 6.5 11.2761 6.5 11V9H7C8.10457 9 9 8.10457 9 7V6.5H11C11.2761 6.5 11.5 6.72386 11.5 7V10.208C11.8062 10.0742 12.1444 10 12.5 10C12.6712 10 12.8384 10.0172 13 10.05V7C13 5.89543 12.1046 5 11 5H9V3C9 1.89543 8.10457 1 7 1H3.94999C3.98278 1.16155 4 1.32877 4 1.5ZM7.5 6.5V7C7.5 7.27614 7.27614 7.5 7 7.5H6.5V7C6.5 6.72386 6.72386 6.5 7 6.5H7.5ZM3 1.5C3 2.32843 2.32843 3 1.5 3C0.671573 3 0 2.32843 0 1.5C0 0.671573 0.671573 0 1.5 0C2.32843 0 3 0.671573 3 1.5ZM14 12.5C14 13.3284 13.3284 14 12.5 14C11.6716 14 11 13.3284 11 12.5C11 11.6716 11.6716 11 12.5 11C13.3284 11 14 11.6716 14 12.5ZM14 1.5C14 2.32843 13.3284 3 12.5 3C11.6716 3 11 2.32843 11 1.5C11 0.671573 11.6716 0 12.5 0C13.3284 0 14 0.671573 14 1.5ZM3 12.5C3 13.3284 2.32843 14 1.5 14C0.671573 14 0 13.3284 0 12.5C0 11.6716 0.671573 11 1.5 11C2.32843 11 3 11.6716 3 12.5Z" fill="#0768D2"/>
</svg>
